<?xml version="1.0" encoding="UTF-8"?>
<svg id="Calque_2" xmlns="http://www.w3.org/2000/svg" version="1.1" viewBox="0 0 334.89 122.07">
  <!-- Generator: Adobe Illustrator 30.4.0, SVG Export Plug-In . SVG Version: 2.1.4 Build 226)  -->
  <defs>
    <style>
      .st0 {
        fill: #f33eaa;
      }

      .st1 {
        fill: #040404;
      }

      .st2 {
        fill: #030404;
      }
    </style>
  </defs>
  <g id="LOGO">
    <g id="LOGO_Principal">
      <rect class="st0" x="164.01" y="52.73" width="6.32" height="18.07" rx=".88" ry=".88"/>
      <rect class="st0" x="154.83" y="52.73" width="6.32" height="18.07" rx=".88" ry=".88"/>
      <path class="st1" d="M85.53,2.74h4.26c.55,0,1,.45,1,1v53.9c0,.43.35.78.78.78h43.81v6.07h-50.07c-.43,0-.78-.35-.78-.78V3.74c0-.55.44-1,1-1Z"/>
      <path class="st1" d="M53.05,2.76s-30.11,0-35.96,0c-.55,0-.98.46-.98,1.01v59.74c0,.56.45,1.01,1.01,1.01h4.06c.56,0,1.01-.45,1.01-1.01v-25.88c0-.4.33-.73.73-.73h29.79c7.92,0,17.12-6.1,17.12-17.36,0-13.22-11.12-16.78-16.78-16.78h0ZM52.79,30.63h-29.81c-.4,0-.72-.32-.72-.72l-.05-20.2c0-.4.32-.72.72-.72h30.35c2.64,0,10.33,2.78,10.33,10.82s-7.94,10.82-10.82,10.82Z"/>
      <path class="st2" d="M215.01,3.35c-.16-.37-.52-.61-.92-.61h-3c-.4,0-.76.24-.92.61l-25.42,59.76c-.28.66.2,1.39.92,1.39h4.55c.4,0,.76-.24.91-.6l4.99-11.5c.11-.25.35-.41.63-.41h31.65c.27,0,.52.16.63.41l4.99,11.5c.16.36.52.6.91.6h4.55c.72,0,1.2-.73.92-1.39L215.01,3.35ZM212.6,45.71h-12.62c-.49,0-.82-.5-.63-.95l12.62-29.46c.24-.55,1.02-.55,1.26,0l12.62,29.46c.19.45-.14.95-.63.95h-12.62,0Z"/>
      <g>
        <rect class="st1" x="286.78" y="4.41" width="6.32" height="60.25" rx=".88" ry=".88"/>
        <path class="st0" d="M298.55,1.84l-7.24,12.55c-.47.82-1.65.82-2.13,0l-7.24-12.55C281.47,1.02,282.06,0,283,0h14.49c.95,0,1.54,1.02,1.06,1.84Z"/>
        <path class="st0" d="M204.3,42.1l7.24-12.55c.47-.82,1.65-.82,2.13,0l7.24,12.55c.47.82-.12,1.84-1.06,1.84h-14.49c-.95,0-1.54-1.02-1.06-1.84h0Z"/>
        <path class="st0" d="M137.35,52.82l13.47,7.78c.88.51.88,1.78,0,2.28l-13.47,7.78c-.88.51-1.98-.13-1.98-1.14v-15.55c0-1.01,1.1-1.65,1.98-1.14h0Z"/>
        <path class="st0" d="M14.13,28.35L.66,20.57c-.88-.51-.88-1.78,0-2.28l13.47-7.78c.88-.51,1.98.13,1.98,1.14v15.55c0,1.01-1.1,1.65-1.98,1.14h0Z"/>
      </g>
    </g>
  </g>
</svg>